<svg width="1280" height="640" viewBox="0 0 1280 640" fill="none" xmlns="http://www.w3.org/2000/svg">
  <rect width="1280" height="640" rx="32" fill="#1F242D"/>
  <rect x="48" y="48" width="1184" height="544" rx="28" fill="url(#bg)"/>
  <circle cx="1088" cy="152" r="160" fill="#0EF" fill-opacity="0.08"/>
  <circle cx="1020" cy="500" r="220" fill="#0EF" fill-opacity="0.05"/>
  <circle cx="1140" cy="124" r="10" fill="#0EF" fill-opacity="0.8"/>
  <circle cx="1114" cy="156" r="6" fill="#0EF" fill-opacity="0.55"/>
  <rect x="84" y="88" width="170" height="42" rx="21" fill="#0EF" fill-opacity="0.12" stroke="#0EF" stroke-opacity="0.2"/>
  <text x="116" y="115" fill="#0EF" font-family="Poppins, Arial, sans-serif" font-size="20" font-weight="700">Portfolio 2026</text>
  <text x="84" y="220" fill="white" font-family="Poppins, Arial, sans-serif" font-size="66" font-weight="700">Luis Bustamante</text>
  <text x="84" y="292" fill="#0EF" font-family="Poppins, Arial, sans-serif" font-size="34" font-weight="700">Full Stack Developer</text>
  <text x="84" y="360" fill="#D7DFEA" font-family="Poppins, Arial, sans-serif" font-size="28" font-weight="400">Building intuitive digital experiences with React, TypeScript,</text>
  <text x="84" y="400" fill="#D7DFEA" font-family="Poppins, Arial, sans-serif" font-size="28" font-weight="400">NestJS, Flutter, and business-focused product thinking.</text>
  <rect x="84" y="468" width="172" height="54" rx="27" fill="#0EF"/>
  <text x="119" y="503" fill="#1F242D" font-family="Poppins, Arial, sans-serif" font-size="24" font-weight="700">Bilingual</text>
  <rect x="276" y="468" width="178" height="54" rx="27" fill="#FFFFFF" fill-opacity="0.06" stroke="#FFFFFF" stroke-opacity="0.12"/>
  <text x="309" y="503" fill="white" font-family="Poppins, Arial, sans-serif" font-size="24" font-weight="700">Production Ready</text>
  <g filter="url(#shadow)">
    <rect x="734" y="112" width="456" height="396" rx="36" fill="#FFFFFF" fill-opacity="0.05" stroke="#FFFFFF" stroke-opacity="0.12"/>
  </g>
  <rect x="766" y="144" width="392" height="48" rx="24" fill="#FFFFFF" fill-opacity="0.06"/>
  <circle cx="802" cy="168" r="6" fill="#0EF"/>
  <circle cx="826" cy="168" r="6" fill="#FFFFFF" fill-opacity="0.35"/>
  <circle cx="850" cy="168" r="6" fill="#FFFFFF" fill-opacity="0.2"/>
  <text x="766" y="222" fill="#FFFFFF" font-family="Poppins, Arial, sans-serif" font-size="18" font-weight="600" opacity="0.75">Selected Stack</text>
  <rect x="766" y="238" width="128" height="42" rx="21" fill="#0EF"/>
  <rect x="908" y="238" width="148" height="42" rx="21" fill="#FFFFFF" fill-opacity="0.08"/>
  <text x="794" y="264" fill="#1F242D" font-family="Poppins, Arial, sans-serif" font-size="18" font-weight="700">Bilingual UI</text>
  <text x="944" y="264" fill="#FFFFFF" font-family="Poppins, Arial, sans-serif" font-size="18" font-weight="700">Timeline UX</text>
  <g clip-path="url(#portraitClip)">
    <rect x="930" y="294" width="210" height="190" rx="26" fill="#0EF" fill-opacity="0.08"/>
    <image href="/images/me.png" x="870" y="208" width="330" height="330" preserveAspectRatio="xMidYMid meet"/>
  </g>
  <rect x="778" y="314" width="120" height="34" rx="17" fill="#FFFFFF" fill-opacity="0.06" stroke="#FFFFFF" stroke-opacity="0.1"/>
  <text x="810" y="336" fill="#FFFFFF" font-family="Poppins, Arial, sans-serif" font-size="16" font-weight="600">React</text>
  <rect x="778" y="360" width="160" height="34" rx="17" fill="#FFFFFF" fill-opacity="0.06" stroke="#FFFFFF" stroke-opacity="0.1"/>
  <text x="804" y="382" fill="#FFFFFF" font-family="Poppins, Arial, sans-serif" font-size="16" font-weight="600">TypeScript</text>
  <rect x="778" y="406" width="128" height="34" rx="17" fill="#FFFFFF" fill-opacity="0.06" stroke="#FFFFFF" stroke-opacity="0.1"/>
  <text x="810" y="428" fill="#FFFFFF" font-family="Poppins, Arial, sans-serif" font-size="16" font-weight="600">NestJS</text>
  <rect x="922" y="406" width="120" height="34" rx="17" fill="#FFFFFF" fill-opacity="0.06" stroke="#FFFFFF" stroke-opacity="0.1"/>
  <text x="954" y="428" fill="#FFFFFF" font-family="Poppins, Arial, sans-serif" font-size="16" font-weight="600">Flutter</text>
  <g transform="translate(84 554)">
    <rect width="102" height="34" rx="17" fill="#FFFFFF" fill-opacity="0.06" stroke="#FFFFFF" stroke-opacity="0.1"/>
    <text x="25" y="23" fill="#FFFFFF" font-family="Poppins, Arial, sans-serif" font-size="16" font-weight="600">React</text>
  </g>
  <g transform="translate(198 554)">
    <rect width="144" height="34" rx="17" fill="#FFFFFF" fill-opacity="0.06" stroke="#FFFFFF" stroke-opacity="0.1"/>
    <text x="20" y="23" fill="#FFFFFF" font-family="Poppins, Arial, sans-serif" font-size="16" font-weight="600">TypeScript</text>
  </g>
  <g transform="translate(356 554)">
    <rect width="114" height="34" rx="17" fill="#FFFFFF" fill-opacity="0.06" stroke="#FFFFFF" stroke-opacity="0.1"/>
    <text x="22" y="23" fill="#FFFFFF" font-family="Poppins, Arial, sans-serif" font-size="16" font-weight="600">NestJS</text>
  </g>
  <g transform="translate(484 554)">
    <rect width="108" height="34" rx="17" fill="#FFFFFF" fill-opacity="0.06" stroke="#FFFFFF" stroke-opacity="0.1"/>
    <text x="24" y="23" fill="#FFFFFF" font-family="Poppins, Arial, sans-serif" font-size="16" font-weight="600">Flutter</text>
  </g>
  <defs>
    <filter id="shadow" x="694" y="76" width="536" height="476" filterUnits="userSpaceOnUse" color-interpolation-filters="sRGB">
      <feFlood flood-opacity="0" result="BackgroundImageFix"/>
      <feColorMatrix in="SourceAlpha" type="matrix" values="0 0 0 0 0 0 0 0 0 0 0 0 0 0 0 0 0 0 127 0" result="hardAlpha"/>
      <feOffset dy="8"/>
      <feGaussianBlur stdDeviation="20"/>
      <feComposite in2="hardAlpha" operator="out"/>
      <feColorMatrix type="matrix" values="0 0 0 0 0.0588235 0 0 0 0 0.988235 0 0 0 0 1 0 0 0 0.12 0"/>
      <feBlend mode="normal" in2="BackgroundImageFix" result="effect1_dropShadow_1_2"/>
      <feBlend mode="normal" in="SourceGraphic" in2="effect1_dropShadow_1_2" result="shape"/>
    </filter>
    <linearGradient id="bg" x1="48" y1="48" x2="1232" y2="592" gradientUnits="userSpaceOnUse">
      <stop stop-color="#262D39"/>
      <stop offset="1" stop-color="#1A1F27"/>
    </linearGradient>
    <clipPath id="portraitClip">
      <rect x="930" y="294" width="210" height="190" rx="26"/>
    </clipPath>
  </defs>
</svg>
