<svg width="1280" height="640" viewBox="0 0 1280 640" fill="none" xmlns="http://www.w3.org/2000/svg">
  <rect width="1280" height="640" rx="32" fill="#1F242D"/>
  <rect x="48" y="48" width="1184" height="544" rx="28" fill="url(#bg)"/>
  <circle cx="1088" cy="152" r="160" fill="#0EF" fill-opacity="0.08"/>
  <circle cx="1020" cy="500" r="220" fill="#0EF" fill-opacity="0.05"/>
  <rect x="84" y="88" width="170" height="42" rx="21" fill="#0EF" fill-opacity="0.12" stroke="#0EF" stroke-opacity="0.2"/>
  <text x="116" y="115" fill="#0EF" font-family="Poppins, Arial, sans-serif" font-size="20" font-weight="700">Portfolio 2026</text>
  <text x="84" y="220" fill="white" font-family="Poppins, Arial, sans-serif" font-size="66" font-weight="700">Luis Bustamante</text>
  <text x="84" y="292" fill="#0EF" font-family="Poppins, Arial, sans-serif" font-size="34" font-weight="700">Full Stack Developer</text>
  <text x="84" y="360" fill="#D7DFEA" font-family="Poppins, Arial, sans-serif" font-size="28" font-weight="400">Building intuitive digital experiences with React, TypeScript,</text>
  <text x="84" y="400" fill="#D7DFEA" font-family="Poppins, Arial, sans-serif" font-size="28" font-weight="400">NestJS, Flutter, and business-focused product thinking.</text>
  <rect x="84" y="468" width="172" height="54" rx="27" fill="#0EF"/>
  <text x="119" y="503" fill="#1F242D" font-family="Poppins, Arial, sans-serif" font-size="24" font-weight="700">Bilingual</text>
  <rect x="276" y="468" width="178" height="54" rx="27" fill="#FFFFFF" fill-opacity="0.06" stroke="#FFFFFF" stroke-opacity="0.12"/>
  <text x="309" y="503" fill="white" font-family="Poppins, Arial, sans-serif" font-size="24" font-weight="700">Production Ready</text>
  <rect x="784" y="188" width="356" height="244" rx="28" fill="#FFFFFF" fill-opacity="0.05" stroke="#FFFFFF" stroke-opacity="0.12"/>
  <rect x="816" y="224" width="292" height="20" rx="10" fill="#0EF" fill-opacity="0.18"/>
  <rect x="816" y="268" width="176" height="16" rx="8" fill="#FFFFFF" fill-opacity="0.7"/>
  <rect x="816" y="302" width="246" height="16" rx="8" fill="#FFFFFF" fill-opacity="0.22"/>
  <rect x="816" y="354" width="96" height="40" rx="20" fill="#0EF"/>
  <rect x="928" y="354" width="132" height="40" rx="20" fill="#FFFFFF" fill-opacity="0.08"/>
  <text x="816" y="170" fill="#FFFFFF" font-family="Poppins, Arial, sans-serif" font-size="18" font-weight="600" opacity="0.75">Selected Stack</text>
  <g transform="translate(84 554)">
    <rect width="102" height="34" rx="17" fill="#FFFFFF" fill-opacity="0.06" stroke="#FFFFFF" stroke-opacity="0.1"/>
    <text x="25" y="23" fill="#FFFFFF" font-family="Poppins, Arial, sans-serif" font-size="16" font-weight="600">React</text>
  </g>
  <g transform="translate(198 554)">
    <rect width="144" height="34" rx="17" fill="#FFFFFF" fill-opacity="0.06" stroke="#FFFFFF" stroke-opacity="0.1"/>
    <text x="20" y="23" fill="#FFFFFF" font-family="Poppins, Arial, sans-serif" font-size="16" font-weight="600">TypeScript</text>
  </g>
  <g transform="translate(356 554)">
    <rect width="114" height="34" rx="17" fill="#FFFFFF" fill-opacity="0.06" stroke="#FFFFFF" stroke-opacity="0.1"/>
    <text x="22" y="23" fill="#FFFFFF" font-family="Poppins, Arial, sans-serif" font-size="16" font-weight="600">NestJS</text>
  </g>
  <g transform="translate(484 554)">
    <rect width="108" height="34" rx="17" fill="#FFFFFF" fill-opacity="0.06" stroke="#FFFFFF" stroke-opacity="0.1"/>
    <text x="24" y="23" fill="#FFFFFF" font-family="Poppins, Arial, sans-serif" font-size="16" font-weight="600">Flutter</text>
  </g>
  <defs>
    <linearGradient id="bg" x1="48" y1="48" x2="1232" y2="592" gradientUnits="userSpaceOnUse">
      <stop stop-color="#262D39"/>
      <stop offset="1" stop-color="#1A1F27"/>
    </linearGradient>
  </defs>
</svg>
